<svg width="64" height="64" viewBox="0 0 64 64" fill="none" xmlns="http://www.w3.org/2000/svg">
<rect x="34.6675" y="18.6666" width="10.6667" height="10.6667" rx="5.33333" stroke="#060606" stroke-opacity="0.5" stroke-width="2"/>
<path d="M12.5825 45.8703L17.2196 41.2332C21.5529 36.8999 28.5787 36.8999 32.9121 41.2332L37.5491 45.8703M37.5491 45.8703L39.4274 43.992C42.8877 40.5316 48.5724 40.7895 51.7053 44.5489L52.8064 45.8703M37.5491 45.8703L44.4842 52.8054M8.94198 40.1322C7.68731 34.7833 7.68731 29.2167 8.94198 23.8678C10.6793 16.4613 16.4623 10.6783 23.8688 8.94097C29.2177 7.6863 34.7843 7.6863 40.1332 8.94097C47.5396 10.6783 53.3227 16.4613 55.06 23.8678C56.3146 29.2167 56.3146 34.7833 55.06 40.1321C53.3227 47.5386 47.5396 53.3216 40.1332 55.059C34.7843 56.3136 29.2177 56.3136 23.8688 55.059C16.4623 53.3216 10.6793 47.5386 8.94198 40.1322Z" stroke="#060606" stroke-opacity="0.5" stroke-width="2" stroke-linecap="round" stroke-linejoin="round"/>
</svg>
